<?xml version="1.0" encoding="UTF-8"?>
<svg id="Layer_2" data-name="Layer 2" xmlns="http://www.w3.org/2000/svg" viewBox="0 0 33.72 12.98">
  <g id="Layer_1-2" data-name="Layer 1">
    <g>
      <path d="M8.24,2.73v.34s-.38,1.24-.38,1.24l-.25,1.33-.16.53c-.05.1-.07.37-.08.5,0,.01.11.13.11.13l.17.28c.05.08.07.18.07.29,0,.16-.05.31-.18.44l-.46.48-.6-.21h-.72c-.25,0-.6-.29-.6-.29l.11-.39.1-.47.71-.05c.1,0,.2-.06.2-.14v-.49s.26-.74.26-1.12c0-.01.02-.02.01-.02l-.88-.02-.88-.22-.23.14-.19.2-.48.26-.37.37c-.47.48-.66.43-.66.82v.04c0,.2.23.54.23.54,0,0-.07.3-.12.4-.11.29-.29.48-.67.48-.1,0-.29-.07-.47-.18l-.25-.16c-.07-.01-.24-.05-.35-.05-.49,0-1.24-.49-1.24-.67v-.02l.23-.61.98.08h.04c.29,0,.3-.28,1.63-1.54.13-.14.29-.28.52-.48l.23-.21.29-.31.23-.19.24-.2c.7-.61,1.87-1.67,1.97-1.75l.43-.44.29-.14c.14-.13.82-.73,1.25-.73.26,0,.5.18.5.58,0,.29-.5,1.47-.58,1.65ZM7.2,2.6c0-.1,0-.22-.05-.22-.04,0-.32.16-.35.18l-.55.48-.31.38-.42.24.61.17.34-.05.4.05.23-.52s.11-.48.11-.64v-.08Z"/>
      <path d="M13.49,2l-.04.42-.28.59-.41,1.79-.47,1.18-.04.29-.1.38.08.16.34-.04.25.17.3.12.12.37-.18.32c-.18.34-.37.42-.77.62l-.67.32-.36.29s-.67-.04-.67-.67c0-.3.07-.52.17-.82.37-1.15.74-2.36.74-2.36l.28-1.25.16-.37.46-1.46.02-.26.13-.46v-.02s-.05-.1-.11-.1c-.14,0-.48.16-.61.23l-.08.17-.34.3c-.11.1-.22.13-.31.13-.14,0-.29-.07-.4-.16-.13-.11-.18-.24-.18-.37,0-.28.23-.6.53-.88.13-.12.35-.26.35-.26l.31-.24.55-.07.36-.05s.07-.01.11-.01c.55,0,.89.52.89,1.24,0,.19-.11.64-.14.77Z"/>
      <path d="M19.77,6.48l-.02.23-.11.3-.26,1.15-.53,1.4-.08.41-.41.72-.19.52-.13.19-.11.37-.22.46c-.19.42-.56.76-.94.76-.3,0-.54-.24-.54-.48,0-.3.4-1.08,1-1.99.14-.21.43-.9.48-1.01l.04-.26.18-.41.2-.79c-.36.12-.86.28-1,.28-.83,0-.97-1.33-.97-1.33l.17-.56v-.79s.34-.86.34-.86c0-.01.01-.02.01-.04,0-.04-.04-.06-.1-.06-.05,0-.13.02-.19.07l-.4.29-.24.11-.36.24c-.1.06-.19.08-.29.08-.28,0-.49-.24-.49-.52,0-.32.17-.52.47-.71l.32-.22.49-.26.46-.37s.32-.05.6-.05c.46,0,1.01.4,1.01.65v.04l-.14.62v.31l-.22.42-.26,1.06.04.36.08.11.34.04s.22-.1.4-.33l.26-.36c.29-.32.41-.7.42-.79.26-.72.59-1.39.59-1.39l.28.04.36-.07.22.4c.11.16.19.29.19.44,0,.07-.01.16-.06.25l-.67,1.37Z"/>
      <path d="M27.14,8.02l-.44.11c-.14.08-.58.36-.79.36-.38,0-.48-.65-.48-.65l-.04-.31.25-.64.34-1.16v-.42s.05-.23.05-.23l-.16-.08-.11.07-.35.14-.68.77-.52.4-.02.2-.22.44-.13.54-.04.54c-.01.28-.56.64-1.07.64-.2,0-.43-.46-.43-.68,0-.25.2-.77.44-1.22.17-.36.3-.65.37-.86l.07-.25.12-.49.17-.24.06-.18c.11-.31.23-.66.23-.66l-.05-.13-.19.02-.11.19-.35.2-.17.22-.32.28-.4-.08-.19-.26-.04-.22v-.04c0-.23.23-.61.65-.95l.6-.48c.32-.25.78-.44.97-.44.47,0,.77.37.77,1.05,0,.17-.1.55-.1.55l.08.13.14-.1.12-.17.29-.13.46-.3h.3l.12-.04s.07-.02.11-.02c.36,0,.84.56.84,1.13s-.23.9-.23,1.64c0,.62.74.62.74.89,0,.31-.68.92-.68.92Z"/>
      <path d="M31.74,5.88l-.18.11-.42.08-.17.08-.14.13c0,.26.31.4.64.41.1-.02.35-.08.52-.08.22,0,.52.26.52.49,0,.38-.7.95-.7.95l-.4-.12-.64-.12-.26-.18c-.14-.08-.94-.59-.94-1.38,0-1.22.66-2.22.66-2.22l.44-.58.26-.2s.64-.63,1.62-.63c.72,0,1.16.39,1.16.98,0,1.5-1.98,2.28-1.98,2.28ZM32.36,3.54c-.28,0-.9.42-1.16.79-.06.07-.29.46-.29.65,0,.02.01.04.01.05.04.01.07.01.11.01.61,0,1.64-.91,1.64-1.26,0-.06-.24-.24-.31-.24Z"/>
    </g>
  </g>
</svg>