<?xml version="1.0" encoding="UTF-8"?>
<svg id="Layer_2" data-name="Layer 2" xmlns="http://www.w3.org/2000/svg" viewBox="0 0 35.9 30.85">
  <g id="Layer_1-2" data-name="Layer 1">
    <g>
      <path d="M3.05,13.57c1.85-3.76,2.95-7.77,3.26-11.95l-2.82,1.17c1.69,1.52,3.53,2.89,5.51,4.03s4.17,2.02,6.36,2.82c.84.31,1.81-.34,2.03-1.15.25-.92-.31-1.72-1.15-2.03-3.84-1.41-7.36-3.24-10.41-5.99-1.1-.99-2.71-.27-2.82,1.17-.27,3.56-1.23,7.08-2.81,10.28-.39.8-.22,1.79.59,2.26.73.43,1.86.21,2.26-.59h0Z"/>
      <path d="M34.32,27.54c-3.58-.31-7.06-1.82-9.74-4.22-1.22-1.1-2.93-2.7-3.4-4.33-.04-.13-.04-.49-.08-.55-.09-.18-.2.09-.29-.04.23.32.62.58.89.89.64.73,1.25,1.61,1.5,2.56.91,3.52-4.35,5.06-6.91,4.46-3.77-.89-5.36-4.88-5.98-8.32-.81-4.42-.49-8.98-1.89-13.3-.65-2.01-3.84-1.15-3.18.88,1.71,5.25.81,10.97,2.64,16.19s5.93,8.71,11.45,7.87c2.32-.35,4.51-1.53,5.96-3.4,1.78-2.28,1.6-5.07.13-7.47-1.2-1.96-3.56-4.8-6.09-3.15s-1.28,4.93.16,6.91c3.51,4.82,8.94,7.81,14.86,8.32,2.12.18,2.1-3.12,0-3.3h0Z"/>
    </g>
  </g>
</svg>